<?xml version="1.0" encoding="UTF-8" standalone="no"?>
<svg data-name="Layer 1" width="390.01669" height="228" viewBox="0 0 390.01669 228" version="1.1" id="svg52"
   xmlns="http://www.w3.org/2000/svg" xmlns:svg="http://www.w3.org/2000/svg">
   <defs id="defs52" />
   <title id="title1">moments</title>
   <circle cx="40.016674" cy="12" r="12" fill="#33b9c5" id="circle45" />
   <path
      d="M 45.081863,1.1328745 A 11.984,11.984 0 0 1 31.951373,20.866944 11.98967,11.98967 0 1 0 45.081863,1.1328745 Z"
      opacity="0.2" id="path45" />
   <ellipse cx="348.51666" cy="25" rx="29.5" ry="12" fill="#3f3d56" id="ellipse45" />
   <path
      d="m 348.5167,12.999994 q -1.51913,0 -3,0.0615 c 14.88324,0.61151 26.5,5.72308 26.5,11.93853 0,6.21545 -11.61676,11.327 -26.5,11.93854 q 1.47978,0.0608 3,0.0615 c 16.29242,0 29.5,-5.37262 29.5,-12 0,-6.62738 -13.20761,-12 -29.5,-12 z"
      opacity="0.2" id="path46" />
   <path
      d="m 387.0167,24.999994 h -148 V 8.9999945 a 3,3 0 0 0 -3,-3 h -82 a 3,3 0 0 0 -3,3 V 24.999994 H 65.016703 v -10 a 3,3 0 0 0 -3,-3 h -44 a 3,3 0 0 0 -3,3 v 10 H 3.0167027 a 2.996,2.996 0 0 0 -3.00000003,3 V 224.99999 a 2.996,2.996 0 0 0 3.00000003,3 H 387.0167 a 2.996,2.996 0 0 0 3,-3 V 27.999994 a 2.996,2.996 0 0 0 -3,-3 z"
      fill="#3f3d56" id="path47" />
   <path
      d="M 387,213.30816 H 3.0000027 a 2.996,2.996 0 0 1 -3.0000000262008,-3 v 14 a 2.996,2.996 0 0 0 3.0000000262008,3 H 387 a 2.996,2.996 0 0 0 3,-3 v -14 a 2.996,2.996 0 0 1 -3,3 z"
      opacity="0.2" id="path48" />
   <rect x="0.016672673" y="117" width="390" height="38" opacity="0.2" id="rect48" />
   <rect x="0.016672673" y="98" width="390" height="38" opacity="0.2" id="rect49" />
   <rect x="0.016672673" y="107" width="390" height="38" fill="#33b9c5" id="rect50" />
   <circle cx="195.01666" cy="126" r="76" fill="#33b9c5" id="circle50" />
   <path
      d="M 253.55702,77.535794 A 75.99569,75.99569 0 0 1 129.47633,164.46414 75.99623,75.99623 0 1 0 253.55702,77.535794 Z"
      opacity="0.2" id="path50" />
   <circle cx="195.01666" cy="126" r="56.55814" fill="#3f3d56" id="circle51" />
   <path
      d="m 239.0167,125.99999 a 43.723,43.723 0 0 1 -3.57,17.37 43.131,43.131 0 0 1 -4.75,8.37 43.99842,43.99842 0 1 1 -61.42,-61.419996 43.12475,43.12475 0 0 1 8.37,-4.75 44.00517,44.00517 0 0 1 61.37,40.429996 z"
      fill="#ffffff" id="path51" />
   <path
      d="m 238.5467,119.58996 a 43.92832,43.92832 0 0 0 -16.44751,-28.265376 44.00211,44.00211 0 0 1 3.34751,41.045406 43.131,43.131 0 0 1 -4.75,8.37 43.973,43.973 0 0 1 -62.76929,8.91852 43.9784,43.9784 0 0 0 72.76929,2.08148 43.131,43.131 0 0 0 4.75,-8.37 44.01773,44.01773 0 0 0 3.1,-23.78 z"
      opacity="0.2" id="path52" />
</svg>
